<svg width="178" height="67" viewBox="0 0 178 67" fill="none" xmlns="http://www.w3.org/2000/svg">
<path d="M74.6733 2.00893C71.2421 2.07735 68.614 2.19981 66.789 2.37631C63.9164 2.65414 59.9901 3.13056 59.5902 3.50769C59.3251 3.75762 59.3236 5.87097 59.5855 9.84774C59.5886 9.8926 59.5692 9.93626 59.533 9.96633L50.0917 17.8008C50.1012 17.8792 50.0982 17.9319 50.1316 17.9661C50.1567 17.9917 50.1963 18.0005 50.2313 17.9881C54.2895 16.5466 57.4092 15.4911 59.5902 14.8215C61.8449 14.1293 64.2013 13.5103 66.6596 12.9645C66.7346 12.9478 66.786 12.8842 66.7818 12.8132L66.3947 6.2432C66.3913 6.18505 66.4253 6.13049 66.4816 6.10396L74.7477 2.2066C74.7432 2.1178 74.7572 2.07777 74.7391 2.04509C74.7265 2.02242 74.7009 2.00838 74.6733 2.00893Z" fill="#073F15"/>
<path d="M46.4804 15.4753L52.702 8.73008C52.7534 8.67442 52.7527 8.5925 52.7005 8.53753L50.0587 5.75519C50.0179 5.71221 50.0077 5.65136 50.0325 5.59903L52.6514 0.0827166C52.534 0.0211424 52.5281 0.00721131 52.5151 0.00198115C52.5065 -0.00149802 52.4965 -0.000336449 52.4891 0.00500649C50.2569 1.61158 48.7579 2.76772 47.9921 3.47343C47.2111 4.19319 46.1758 5.26437 44.8863 6.68695C44.8333 6.74553 44.8375 6.83174 44.896 6.88568L47.925 9.67699C47.9664 9.71514 47.9819 9.77108 47.9654 9.82284L46.2051 15.3382C46.1801 15.4163 46.2286 15.4983 46.3134 15.5213C46.374 15.5377 46.4395 15.5197 46.4804 15.4753Z" fill="#073F15"/>
<path d="M28.7953 66.1279C44.6986 66.1279 57.5907 54.2474 57.5907 39.5919C57.5907 24.9365 44.6986 13.0559 28.7953 13.0559C12.8921 13.0559 0 24.9365 0 39.5919C0 54.2474 12.8921 66.1279 28.7953 66.1279Z" fill="#13C93F"/>
<path fill-rule="evenodd" clip-rule="evenodd" d="M57.5907 39.5919C57.5907 54.2474 44.6986 66.1279 28.7953 66.1279C12.8921 66.1279 0 54.2474 0 39.5919C0 24.9365 12.8921 13.0559 28.7953 13.0559C44.6986 13.0559 57.5907 24.9365 57.5907 39.5919ZM4.79919 39.5919C4.79919 51.8048 15.5426 61.7053 28.7953 61.7053C42.048 61.7053 52.7914 51.8048 52.7914 39.5919C52.7914 27.3791 42.048 17.4786 28.7953 17.4786C15.5426 17.4786 4.79919 27.3791 4.79919 39.5919Z" fill="#073F15"/>
<path d="M28.7953 51.3857C35.8634 51.3857 41.5932 46.1054 41.5932 39.5919C41.5932 33.0784 35.8634 27.7981 28.7953 27.7981C21.7272 27.7981 15.9974 33.0784 15.9974 39.5919C15.9974 46.1054 21.7272 51.3857 28.7953 51.3857Z" fill="#ADE347"/>
<path fill-rule="evenodd" clip-rule="evenodd" d="M26.3957 25.5868C26.3957 26.8081 28.1954 30.0095 28.7954 30.0095C29.3953 30.0095 31.195 26.8081 31.195 25.5868C31.195 24.3655 30.1206 23.3755 28.7954 23.3755C27.4701 23.3755 26.3957 24.3655 26.3957 25.5868ZM37.8448 28.1252C36.9077 28.9888 35.7238 32.4252 36.148 32.8161C36.5722 33.2071 40.3012 32.1161 41.2384 31.2525C42.1755 30.3889 42.1755 28.9888 41.2384 28.1252C40.3012 27.2616 38.7819 27.2616 37.8448 28.1252ZM39.1935 39.5919C39.1935 39.0391 42.6675 37.3806 43.9927 37.3806C45.318 37.3806 46.3924 38.3707 46.3924 39.5919C46.3924 40.8132 45.318 41.8033 43.9927 41.8033C42.6675 41.8033 39.1935 40.1448 39.1935 39.5919ZM41.2384 47.9314C40.3012 47.0678 36.5722 45.9768 36.148 46.3677C35.7238 46.7587 36.9077 50.1951 37.8448 51.0587C38.7819 51.9223 40.3012 51.9223 41.2384 51.0587C42.1755 50.1951 42.1755 48.795 41.2384 47.9314ZM28.7954 49.1743C29.3953 49.1743 31.195 52.3757 31.195 53.597C31.195 54.8183 30.1206 55.8083 28.7954 55.8083C27.4701 55.8083 26.3957 54.8183 26.3957 53.597C26.3957 52.3757 28.1954 49.1743 28.7954 49.1743ZM19.7458 51.0587C20.6829 50.1951 21.8668 46.7587 21.4426 46.3677C21.0184 45.9768 17.2893 47.0678 16.3522 47.9314C15.4151 48.795 15.4151 50.1951 16.3522 51.0587C17.2893 51.9223 18.8087 51.9223 19.7458 51.0587ZM18.397 39.5919C18.397 40.1448 14.923 41.8033 13.5977 41.8033C12.2725 41.8033 11.1981 40.8132 11.1981 39.5919C11.1981 38.3707 12.2725 37.3806 13.5977 37.3806C14.923 37.3806 18.397 39.0391 18.397 39.5919ZM16.3522 31.2525C17.2893 32.1161 21.0184 33.2071 21.4426 32.8161C21.8668 32.4252 20.6829 28.9888 19.7458 28.1252C18.8087 27.2616 17.2893 27.2616 16.3522 28.1252C15.4151 28.9888 15.4151 30.3889 16.3522 31.2525Z" fill="#073F15"/>
<path d="M28.7954 44.7517C31.8877 44.7517 34.3945 42.4416 34.3945 39.5919C34.3945 36.7422 31.8877 34.4321 28.7954 34.4321C25.7031 34.4321 23.1963 36.7422 23.1963 39.5919C23.1963 42.4416 25.7031 44.7517 28.7954 44.7517Z" fill="white"/>
<path fill-rule="evenodd" clip-rule="evenodd" d="M103.595 53.7293C103.595 52.989 103.288 52.3228 102.674 51.7306L94.1906 43.2916L101.511 37.1178C102.286 36.496 102.674 35.8298 102.674 35.1191C102.674 34.5565 102.391 34.0013 101.826 33.4535C101.26 32.9057 100.622 32.6318 99.9109 32.6318C99.103 32.6318 98.392 32.9131 97.7779 33.4757L87.4038 42.6698V26.236C87.4038 25.4661 87.1291 24.8221 86.5797 24.3039C86.0303 23.7857 85.3355 23.5266 84.4952 23.5266C83.655 23.5266 82.9601 23.7857 82.4107 24.3039C81.8613 24.8221 81.5866 25.4661 81.5866 26.236V53.6849C81.5866 54.4547 81.8613 55.0988 82.4107 55.6169C82.9601 56.1351 83.655 56.3942 84.4952 56.3942C85.3355 56.3942 86.0303 56.1351 86.5797 55.6169C87.1291 55.0988 87.4038 54.4547 87.4038 53.6849V49.0212L89.7792 47.0225L98.5051 55.4615C99.0868 56.0537 99.7978 56.3498 100.638 56.3498C101.349 56.3498 102.02 56.0981 102.65 55.5947C103.28 55.0914 103.595 54.4695 103.595 53.7293ZM118.187 55.6169C118.736 55.0987 119.011 54.4547 119.011 53.6848V35.3412C119.011 34.5713 118.736 33.9273 118.187 33.4091C117.637 32.8909 116.943 32.6318 116.102 32.6318C115.262 32.6318 114.567 32.8909 114.018 33.4091C113.468 33.9273 113.194 34.5713 113.194 35.3412V53.6848C113.194 54.4547 113.468 55.0987 114.018 55.6169C114.567 56.1351 115.262 56.3942 116.102 56.3942C116.943 56.3942 117.637 56.1351 118.187 55.6169ZM159.683 32.6318C160.459 32.6318 161.113 32.8909 161.646 33.4091C162.18 33.9273 162.446 34.5861 162.446 35.3856C162.446 35.6521 162.382 35.9926 162.252 36.4071L154.835 54.7064C154.641 55.2394 154.294 55.6613 153.793 55.9723C153.292 56.2832 152.751 56.4386 152.169 56.4386L151.781 56.3942C150.682 56.335 149.858 55.7724 149.309 54.7064L145.188 43.7801L141.262 54.7064C140.712 55.7724 139.888 56.335 138.789 56.3942L138.402 56.4386C137.82 56.4386 137.279 56.2832 136.778 55.9723C136.277 55.6613 135.929 55.2394 135.735 54.7064L128.318 36.4071C128.189 36.0814 128.125 35.7409 128.125 35.3856C128.125 34.6453 128.391 34.0013 128.924 33.4535C129.458 32.9057 130.161 32.6318 131.033 32.6318C131.68 32.6318 132.237 32.7725 132.706 33.0538C133.174 33.3351 133.505 33.757 133.699 34.3196L138.935 47.3334L142.765 37.8284C143.282 36.7328 144.17 36.1851 145.431 36.1851C146.109 36.1851 146.635 36.3183 147.006 36.5848C147.378 36.8513 147.693 37.2658 147.952 37.8284L151.684 47.1113L156.871 34.3196C157.065 33.757 157.405 33.3351 157.889 33.0538C158.374 32.7725 158.972 32.6318 159.683 32.6318ZM176.553 55.6169C177.103 55.0987 177.377 54.4547 177.377 53.6848V35.3412C177.377 34.5713 177.103 33.9273 176.553 33.4091C176.004 32.8909 175.309 32.6318 174.469 32.6318C173.628 32.6318 172.934 32.8909 172.384 33.4091C171.835 33.9273 171.56 34.5713 171.56 35.3412V53.6848C171.56 54.4547 171.835 55.0987 172.384 55.6169C172.934 56.1351 173.628 56.3942 174.469 56.3942C175.309 56.3942 176.004 56.1351 176.553 55.6169Z" fill="#0D361E"/>
<path d="M116.09 30.6331C116.817 30.6331 118.999 26.7751 118.999 25.3032C118.999 23.8314 117.697 22.6383 116.09 22.6383C114.484 22.6383 113.182 23.8314 113.182 25.3032C113.182 26.7751 115.363 30.6331 116.09 30.6331Z" fill="#ADE347"/>
<path d="M174.481 30.6331C175.208 30.6331 177.389 26.7751 177.389 25.3032C177.389 23.8314 176.087 22.6383 174.481 22.6383C172.874 22.6383 171.572 23.8314 171.572 25.3032C171.572 26.7751 173.754 30.6331 174.481 30.6331Z" fill="#ADE347"/>
</svg>
