<svg width="76" height="24" viewBox="0 0 96 34" fill="none" xmlns="http://www.w3.org/2000/svg">
<path fill-rule="evenodd" clip-rule="evenodd" d="M22.0086 31.091C22.0086 30.3507 21.7015 29.6845 21.0875 29.0923L12.604 20.6533L19.924 14.4795C20.6997 13.8577 21.0875 13.1915 21.0875 12.4808C21.0875 11.9182 20.8047 11.363 20.2391 10.8152C19.6736 10.2674 19.0353 9.99352 18.3243 9.99352C17.5163 9.99352 16.8054 10.2748 16.1913 10.8374L5.81724 20.0315V3.59766C5.81724 2.82779 5.54254 2.18377 4.99313 1.66558C4.44372 1.14739 3.74889 0.888306 2.90862 0.888306C2.06835 0.888306 1.37352 1.14739 0.824109 1.66558C0.2747 2.18377 0 2.82779 0 3.59766V31.0466C0 31.8164 0.2747 32.4605 0.824109 32.9786C1.37352 33.4968 2.06835 33.7559 2.90862 33.7559C3.74889 33.7559 4.44372 33.4968 4.99313 32.9786C5.54254 32.4605 5.81724 31.8164 5.81724 31.0466V26.3829L8.19261 24.3842L16.9185 32.8232C17.5002 33.4154 18.2112 33.7115 19.0515 33.7115C19.7625 33.7115 20.4331 33.4598 21.0633 32.9564C21.6935 32.4531 22.0086 31.8312 22.0086 31.091ZM36.6003 32.9786C37.1497 32.4604 37.4244 31.8164 37.4244 31.0465V12.7029C37.4244 11.933 37.1497 11.289 36.6003 10.7708C36.0509 10.2526 35.3561 9.9935 34.5158 9.9935C33.6755 9.9935 32.9807 10.2526 32.4313 10.7708C31.8819 11.289 31.6072 11.933 31.6072 12.7029V31.0465C31.6072 31.8164 31.8819 32.4604 32.4313 32.9786C32.9807 33.4968 33.6755 33.7559 34.5158 33.7559C35.3561 33.7559 36.0509 33.4968 36.6003 32.9786ZM78.0964 9.9935C78.8721 9.9935 79.5265 10.2526 80.0598 10.7708C80.593 11.289 80.8596 11.9478 80.8596 12.7473C80.8596 13.0138 80.795 13.3543 80.6657 13.7688L73.2487 32.0681C73.0548 32.6011 72.7074 33.023 72.2065 33.3339C71.7056 33.6449 71.1642 33.8003 70.5825 33.8003L70.1947 33.7559C69.0959 33.6967 68.2718 33.1341 67.7224 32.0681L63.6018 21.1418L59.6752 32.0681C59.1258 33.1341 58.3017 33.6967 57.2029 33.7559L56.815 33.8003C56.2333 33.8003 55.692 33.6449 55.1911 33.3339C54.6901 33.023 54.3427 32.6011 54.1488 32.0681L46.7318 13.7688C46.6026 13.4431 46.5379 13.1026 46.5379 12.7473C46.5379 12.007 46.8045 11.363 47.3378 10.8152C47.871 10.2674 48.5739 9.9935 49.4465 9.9935C50.0929 9.9935 50.6504 10.1341 51.119 10.4154C51.5876 10.6967 51.9189 11.1187 52.1128 11.6813L57.3483 24.6951L61.178 15.1901C61.6951 14.0945 62.5838 13.5468 63.8442 13.5468C64.5229 13.5468 65.048 13.68 65.4197 13.9465C65.7914 14.213 66.1065 14.6275 66.365 15.1901L70.0977 24.473L75.2848 11.6813C75.4787 11.1187 75.818 10.6967 76.3028 10.4154C76.7876 10.1341 77.3854 9.9935 78.0964 9.9935ZM94.9665 32.9786C95.5159 32.4604 95.7906 31.8164 95.7906 31.0465V12.7029C95.7906 11.933 95.5159 11.289 94.9665 10.7708C94.4171 10.2526 93.7223 9.9935 92.882 9.9935C92.0417 9.9935 91.3469 10.2526 90.7975 10.7708C90.2481 11.289 89.9734 11.933 89.9734 12.7029V31.0465C89.9734 31.8164 90.2481 32.4604 90.7975 32.9786C91.3469 33.4968 92.0417 33.7559 92.882 33.7559C93.7223 33.7559 94.4171 33.4968 94.9665 32.9786Z" fill="#0D361E"/>
<path d="M34.5035 7.99482C35.2307 7.99482 37.4121 4.13675 37.4121 2.66494C37.4121 1.19313 36.1099 0 34.5035 0C32.8971 0 31.5949 1.19313 31.5949 2.66494C31.5949 4.13675 33.7764 7.99482 34.5035 7.99482Z" fill="#ADE347"/>
<path d="M92.8942 7.99482C93.6213 7.99482 95.8028 4.13675 95.8028 2.66494C95.8028 1.19313 94.5005 0 92.8942 0C91.2878 0 89.9855 1.19313 89.9855 2.66494C89.9855 4.13675 92.167 7.99482 92.8942 7.99482Z" fill="#ADE347"/>
</svg>
