<svg width="20" height="20" viewBox="0 0 20 20" fill="none" xmlns="http://www.w3.org/2000/svg">
<path d="M10 20C15.5228 20 20 15.5228 20 10C20 4.47715 15.5228 0 10 0C4.47715 0 0 4.47715 0 10C0 15.5228 4.47715 20 10 20Z" fill="#0D361E"/>
<path d="M10.1928 15.4625C12.9372 15.4625 15.1619 13.2338 15.1619 10.4846C15.1619 7.73544 12.9372 5.50677 10.1928 5.50677C7.44843 5.50677 5.22368 7.73544 5.22368 10.4846C5.22368 13.2338 7.44843 15.4625 10.1928 15.4625Z" fill="#B7ED4E"/>
<path fill-rule="evenodd" clip-rule="evenodd" d="M10 18.75C14.8325 18.75 18.75 14.8325 18.75 10C18.75 5.16751 14.8325 1.25 10 1.25C5.16751 1.25 1.25 5.16751 1.25 10C1.25 14.8325 5.16751 18.75 10 18.75Z" fill="#13C93F"/>
<path fill-rule="evenodd" clip-rule="evenodd" d="M10.0623 14.4686C12.4515 14.4686 14.3883 12.5316 14.3883 10.1422C14.3883 7.75275 12.4515 5.81573 10.0623 5.81573C7.67316 5.81573 5.73634 7.75275 5.73634 10.1422C5.73634 12.5316 7.67316 14.4686 10.0623 14.4686Z" fill="#ADE347"/>
<path fill-rule="evenodd" clip-rule="evenodd" d="M10.8766 5.00451C10.8766 5.45252 10.2682 6.62692 10.0654 6.62692C9.86259 6.62692 9.25421 5.45252 9.25421 5.00451C9.25421 4.55649 9.61738 4.1933 10.0654 4.1933C10.5134 4.1933 10.8766 4.55649 10.8766 5.00451ZM14.2717 7.08289C13.9549 7.39969 12.6943 7.79991 12.5509 7.6565C12.4075 7.5131 12.8077 6.25247 13.1245 5.93567C13.4413 5.61888 13.9549 5.61888 14.2717 5.93567C14.5885 6.25247 14.5885 6.7661 14.2717 7.08289ZM13.5805 10.1422C13.5805 10.345 14.7548 10.9534 15.2028 10.9534C15.6508 10.9534 16.014 10.5902 16.014 10.1422C16.014 9.69413 15.6508 9.33094 15.2028 9.33094C14.7548 9.33094 13.5805 9.93935 13.5805 10.1422ZM13.1245 14.3486C12.8077 14.0318 12.4075 12.7712 12.5509 12.6278C12.6943 12.4844 13.9549 12.8846 14.2717 13.2014C14.5885 13.5182 14.5885 14.0318 14.2717 14.3486C13.9549 14.6654 13.4413 14.6654 13.1245 14.3486ZM10.0654 13.6574C9.86261 13.6574 9.25423 14.8318 9.25423 15.2798C9.25423 15.7278 9.6174 16.091 10.0654 16.091C10.5134 16.091 10.8766 15.7278 10.8766 15.2798C10.8766 14.8318 10.2682 13.6574 10.0654 13.6574ZM5.85908 13.2014C6.17586 12.8846 7.43644 12.4844 7.57983 12.6278C7.72323 12.7712 7.32303 14.0318 7.00625 14.3486C6.68947 14.6654 6.17586 14.6654 5.85908 14.3486C5.54229 14.0318 5.54229 13.5182 5.85908 13.2014ZM6.55029 10.1421C6.55029 9.93935 5.37595 9.33094 4.92795 9.33094C4.47995 9.33094 4.11678 9.69413 4.11678 10.1421C4.11678 10.5902 4.47995 10.9534 4.92795 10.9534C5.37595 10.9534 6.55029 10.345 6.55029 10.1421ZM7.00627 5.93567C7.32306 6.25247 7.72326 7.5131 7.57986 7.6565C7.43646 7.79991 6.17588 7.39969 5.8591 7.08289C5.54232 6.7661 5.54232 6.25247 5.8591 5.93567C6.17588 5.61888 6.68949 5.61888 7.00627 5.93567Z" fill="#073F15"/>
<path fill-rule="evenodd" clip-rule="evenodd" d="M10.0557 12.0293C11.0995 12.0293 11.9457 11.1831 11.9457 10.1393C11.9457 9.09551 11.0995 8.24933 10.0557 8.24933C9.01189 8.24933 8.16571 9.09551 8.16571 10.1393C8.16571 11.1831 9.01189 12.0293 10.0557 12.0293Z" fill="white"/>
</svg>
